<svg id="assets" xmlns="http://www.w3.org/2000/svg" width="266" height="151" viewBox="0 0 266 151"><title>empty-state- no-chart-data-light-gray</title><g id="no-chart-data"><g id="bottom-page"><polygon id="fill-paper-bottom" points="121.03 125.97 230.3 91.63 162.57 19.92 53.3 54.26 121.03 125.97" fill="#fff"/><g id="grid-lines"><line x1="158.58" y1="20.55" x2="226.86" y2="92.9" fill="none" stroke="#8ca9b8" stroke-miterlimit="10" stroke-width="0.35"/><line x1="152.27" y1="22.54" x2="220.55" y2="94.89" fill="none" stroke="#8ca9b8" stroke-miterlimit="10" stroke-width="0.35"/><line x1="145.95" y1="24.53" x2="214.23" y2="96.88" fill="none" stroke="#8ca9b8" stroke-miterlimit="10" stroke-width="0.35"/><line x1="139.64" y1="26.52" x2="207.92" y2="98.87" fill="none" stroke="#8ca9b8" stroke-miterlimit="10" stroke-width="0.35"/><line x1="133.33" y1="28.51" x2="201.61" y2="100.86" fill="none" stroke="#8ca9b8" stroke-miterlimit="10" stroke-width="0.35"/><line x1="127.01" y1="30.5" x2="195.29" y2="102.86" fill="none" stroke="#8ca9b8" stroke-miterlimit="10" stroke-width="0.35"/><line x1="120.7" y1="32.49" x2="188.98" y2="104.85" fill="none" stroke="#8ca9b8" stroke-miterlimit="10" stroke-width="0.35"/><line x1="114.38" y1="34.48" x2="182.67" y2="106.84" fill="none" stroke="#8ca9b8" stroke-miterlimit="10" stroke-width="0.35"/><line x1="108.07" y1="36.47" x2="176.35" y2="108.83" fill="none" stroke="#8ca9b8" stroke-miterlimit="10" stroke-width="0.35"/><line x1="101.76" y1="38.46" x2="170.04" y2="110.82" fill="none" stroke="#8ca9b8" stroke-miterlimit="10" stroke-width="0.35"/><line x1="95.44" y1="40.45" x2="163.72" y2="112.81" fill="none" stroke="#8ca9b8" stroke-miterlimit="10" stroke-width="0.35"/><line x1="89.13" y1="42.44" x2="157.41" y2="114.8" fill="none" stroke="#8ca9b8" stroke-miterlimit="10" stroke-width="0.35"/><line x1="82.82" y1="44.43" x2="151.1" y2="116.79" fill="none" stroke="#8ca9b8" stroke-miterlimit="10" stroke-width="0.35"/><line x1="76.5" y1="46.42" x2="144.78" y2="118.78" fill="none" stroke="#8ca9b8" stroke-miterlimit="10" stroke-width="0.35"/><line x1="70.19" y1="48.41" x2="138.47" y2="120.77" fill="none" stroke="#8ca9b8" stroke-miterlimit="10" stroke-width="0.35"/><line x1="63.87" y1="50.4" x2="132.16" y2="122.76" fill="none" stroke="#8ca9b8" stroke-miterlimit="10" stroke-width="0.35"/><line x1="57.56" y1="52.39" x2="125.84" y2="124.75" fill="none" stroke="#8ca9b8" stroke-miterlimit="10" stroke-width="0.35"/><line x1="229.19" y1="89.89" x2="119.1" y2="124.35" fill="none" stroke="#8ca9b8" stroke-miterlimit="10" stroke-width="0.35"/><line x1="224.85" y1="85.3" x2="114.76" y2="119.76" fill="none" stroke="#8ca9b8" stroke-miterlimit="10" stroke-width="0.35"/><line x1="220.51" y1="80.71" x2="110.43" y2="115.17" fill="none" stroke="#8ca9b8" stroke-miterlimit="10" stroke-width="0.35"/><line x1="216.17" y1="76.12" x2="106.09" y2="110.57" fill="none" stroke="#8ca9b8" stroke-miterlimit="10" stroke-width="0.35"/><line x1="211.82" y1="71.53" x2="101.76" y2="105.98" fill="none" stroke="#8ca9b8" stroke-miterlimit="10" stroke-width="0.35"/><line x1="207.48" y1="66.94" x2="97.42" y2="101.39" fill="none" stroke="#8ca9b8" stroke-miterlimit="10" stroke-width="0.35"/><line x1="203.14" y1="62.35" x2="93.08" y2="96.8" fill="none" stroke="#8ca9b8" stroke-miterlimit="10" stroke-width="0.35"/><line x1="198.8" y1="57.75" x2="88.75" y2="92.2" fill="none" stroke="#8ca9b8" stroke-miterlimit="10" stroke-width="0.35"/><line x1="194.45" y1="53.16" x2="84.41" y2="87.61" fill="none" stroke="#8ca9b8" stroke-miterlimit="10" stroke-width="0.35"/><line x1="190.11" y1="48.57" x2="80.07" y2="83.02" fill="none" stroke="#8ca9b8" stroke-miterlimit="10" stroke-width="0.35"/><line x1="185.77" y1="43.98" x2="75.74" y2="78.42" fill="none" stroke="#8ca9b8" stroke-miterlimit="10" stroke-width="0.35"/><line x1="181.43" y1="39.39" x2="71.4" y2="73.83" fill="none" stroke="#8ca9b8" stroke-miterlimit="10" stroke-width="0.35"/><line x1="177.08" y1="34.8" x2="67.06" y2="69.24" fill="none" stroke="#8ca9b8" stroke-miterlimit="10" stroke-width="0.35"/><line x1="172.74" y1="30.21" x2="62.73" y2="64.65" fill="none" stroke="#8ca9b8" stroke-miterlimit="10" stroke-width="0.35"/><line x1="168.4" y1="25.62" x2="58.39" y2="60.05" fill="none" stroke="#8ca9b8" stroke-miterlimit="10" stroke-width="0.35"/><line x1="164.06" y1="21.03" x2="54.05" y2="55.46" fill="none" stroke="#8ca9b8" stroke-miterlimit="10" stroke-width="0.35"/></g><g id="outline-paper-bottom"><path d="M162.57,19.92,230.3,91.63,121,126,53.3,54.26,162.57,19.92m.37-1.43-.75.23L52.92,53.06l-1.9.6,1.37,1.46,67.74,71.71.53.57.75-.24L230.68,92.82l1.9-.6-1.37-1.45L163.47,19.06l-.53-.57Z" fill="#5a7d91"/></g></g><g id="graph-sketch"><polygon id="fill-paper-top" points="145.37 125.46 232.99 74.87 132.73 16.98 45.11 67.57 145.37 125.46" fill="#fff"/><g id="grid-lines-2" data-name="grid-lines"><line x1="135.29" y1="18.12" x2="47.06" y2="69.06" fill="none" stroke="#8ca9b8" stroke-miterlimit="10" stroke-width="0.35"/><line x1="141.31" y1="21.59" x2="53.08" y2="72.53" fill="none" stroke="#8ca9b8" stroke-miterlimit="10" stroke-width="0.35"/><line x1="147.33" y1="25.06" x2="59.1" y2="76" fill="none" stroke="#8ca9b8" stroke-miterlimit="10" stroke-width="0.35"/><line x1="153.35" y1="28.53" x2="65.12" y2="79.47" fill="none" stroke="#8ca9b8" stroke-miterlimit="10" stroke-width="0.35"/><line x1="159.37" y1="32.01" x2="71.14" y2="82.95" fill="none" stroke="#8ca9b8" stroke-miterlimit="10" stroke-width="0.35"/><line x1="165.38" y1="35.48" x2="77.16" y2="86.42" fill="none" stroke="#8ca9b8" stroke-miterlimit="10" stroke-width="0.35"/><line x1="171.4" y1="38.95" x2="83.18" y2="89.89" fill="none" stroke="#8ca9b8" stroke-miterlimit="10" stroke-width="0.35"/><line x1="177.42" y1="42.43" x2="89.2" y2="93.36" fill="none" stroke="#8ca9b8" stroke-miterlimit="10" stroke-width="0.35"/><line x1="183.44" y1="45.9" x2="95.22" y2="96.83" fill="none" stroke="#8ca9b8" stroke-miterlimit="10" stroke-width="0.35"/><line x1="189.46" y1="49.37" x2="101.24" y2="100.31" fill="none" stroke="#8ca9b8" stroke-miterlimit="10" stroke-width="0.35"/><line x1="195.48" y1="52.85" x2="107.26" y2="103.78" fill="none" stroke="#8ca9b8" stroke-miterlimit="10" stroke-width="0.35"/><line x1="201.5" y1="56.32" x2="113.28" y2="107.25" fill="none" stroke="#8ca9b8" stroke-miterlimit="10" stroke-width="0.35"/><line x1="207.52" y1="59.79" x2="119.3" y2="110.72" fill="none" stroke="#8ca9b8" stroke-miterlimit="10" stroke-width="0.35"/><line x1="213.54" y1="63.27" x2="125.32" y2="114.2" fill="none" stroke="#8ca9b8" stroke-miterlimit="10" stroke-width="0.35"/><line x1="219.56" y1="66.74" x2="131.34" y2="117.67" fill="none" stroke="#8ca9b8" stroke-miterlimit="10" stroke-width="0.35"/><line x1="225.58" y1="70.21" x2="137.36" y2="121.14" fill="none" stroke="#8ca9b8" stroke-miterlimit="10" stroke-width="0.35"/><line x1="231.59" y1="73.69" x2="143.38" y2="124.61" fill="none" stroke="#8ca9b8" stroke-miterlimit="10" stroke-width="0.35"/><line x1="129.87" y1="18.17" x2="230.85" y2="76.47" fill="none" stroke="#8ca9b8" stroke-miterlimit="10" stroke-width="0.35"/><line x1="124.04" y1="21.53" x2="225.02" y2="79.83" fill="none" stroke="#8ca9b8" stroke-miterlimit="10" stroke-width="0.35"/><line x1="118.21" y1="24.89" x2="219.2" y2="83.19" fill="none" stroke="#8ca9b8" stroke-miterlimit="10" stroke-width="0.35"/><line x1="112.37" y1="28.24" x2="213.38" y2="86.56" fill="none" stroke="#8ca9b8" stroke-miterlimit="10" stroke-width="0.35"/><line x1="106.54" y1="31.6" x2="207.55" y2="89.92" fill="none" stroke="#8ca9b8" stroke-miterlimit="10" stroke-width="0.35"/><line x1="100.71" y1="34.96" x2="201.73" y2="93.28" fill="none" stroke="#8ca9b8" stroke-miterlimit="10" stroke-width="0.35"/><line x1="94.88" y1="38.31" x2="195.91" y2="96.64" fill="none" stroke="#8ca9b8" stroke-miterlimit="10" stroke-width="0.35"/><line x1="89.05" y1="41.67" x2="190.08" y2="100" fill="none" stroke="#8ca9b8" stroke-miterlimit="10" stroke-width="0.35"/><line x1="83.22" y1="45.03" x2="184.26" y2="103.36" fill="none" stroke="#8ca9b8" stroke-miterlimit="10" stroke-width="0.35"/><line x1="77.38" y1="48.38" x2="178.43" y2="106.72" fill="none" stroke="#8ca9b8" stroke-miterlimit="10" stroke-width="0.35"/><line x1="71.55" y1="51.74" x2="172.61" y2="110.08" fill="none" stroke="#8ca9b8" stroke-miterlimit="10" stroke-width="0.35"/><line x1="65.72" y1="55.1" x2="166.79" y2="113.45" fill="none" stroke="#8ca9b8" stroke-miterlimit="10" stroke-width="0.35"/><line x1="59.89" y1="58.45" x2="160.96" y2="116.81" fill="none" stroke="#8ca9b8" stroke-miterlimit="10" stroke-width="0.35"/><line x1="54.06" y1="61.81" x2="155.14" y2="120.17" fill="none" stroke="#8ca9b8" stroke-miterlimit="10" stroke-width="0.35"/><line x1="48.23" y1="65.17" x2="149.32" y2="123.53" fill="none" stroke="#8ca9b8" stroke-miterlimit="10" stroke-width="0.35"/></g><g id="graphic"><path id="arrows" d="M168.48,57.66l.08,2,11.75-.3-51,29.47L88.85,65.43l11.43-.13,1.36-2.21-19.54.09L81.76,74.3h3.4l.08-8.14,43.87,25.33,54-31.18-3,7.88c.25.08,3.06-.09,3.06-.09l4.41-11.46Z" fill="#8ca7b8"/><g id="side"><polygon points="87.82 77.04 89.15 77.94 92.91 75.64 91.7 74.62 87.82 77.04" fill="#8ca7b8"/><polygon points="94.35 81.56 95.73 82.39 99.38 79.92 98.12 78.95 94.35 81.56" fill="#8ca7b8"/><polygon points="101.42 85.38 102.8 86.21 106.44 83.74 105.19 82.78 101.42 85.38" fill="#8ca7b8"/><polygon points="108.3 89.39 109.68 90.22 113.32 87.75 112.07 86.79 108.3 89.39" fill="#8ca7b8"/><polygon points="115.82 93.47 117.2 94.3 120.84 91.83 119.58 90.87 115.82 93.47" fill="#8ca7b8"/></g><g id="bottom"><polygon points="145.34 92.05 144.11 93.08 140.13 91.2 141.22 90.06 145.34 92.05" fill="#8ca7b8"/><polygon points="154.07 86.89 152.83 87.92 148.85 86.05 149.95 84.9 154.07 86.89" fill="#8ca7b8"/><polygon points="162.05 81.99 160.9 82.95 157.19 81.2 158.21 80.14 162.05 81.99" fill="#8ca7b8"/><polygon points="170.39 77.34 169.24 78.3 165.53 76.55 166.55 75.48 170.39 77.34" fill="#8ca7b8"/><polygon points="179.25 72.75 178.1 73.71 174.39 71.96 175.41 70.9 179.25 72.75" fill="#8ca7b8"/></g></g><g id="outline-paper-top"><path d="M132.73,17,233,74.87l-87.62,50.59L45.11,67.57,132.73,17m0-1.44-.62.36L44.49,66.49l-1.88,1.08,1.88,1.08,100.26,57.89.62.36.63-.36L233.62,76l1.87-1.08-1.87-1.08L133.36,15.9l-.63-.36Z" fill="#5a7d91"/></g></g><g id="cast-shadow"><path d="M198.49,84.33c5.23,1.4,12.74,2.8,15.67-.26S234.42,64.45,236.46,60s2.67-8.4-2.81-9.17-22.42,12.49-22.42,12.49Z" fill="#5a7d91" opacity="0.3"/><path d="M31.6,102.22l7.92,2.86.07.83,5,.58a7.31,7.31,0,0,0,5,3.64c3.77.89,34.31,7.22,34.31,7.22l1.28,1.15s85.18,14.89,87.48,15.21,6.39.7,8.31-.64,4.15-4.92-2.88-6.33-130-26.13-130-26.13l-6.2,1-10.15-.16A.39.39,0,0,0,31.6,102.22Z" fill="#5a7d91" opacity="0.3"/></g><g id="marker"><path d="M37.31,92.73l-8.45-.4a.75.75,0,0,0-.34,1.44l7.85,3.46Z" fill="#8ca9b8"/><path d="M45.14,93.3l-6.53-1.2c-1.61-.3-2.33,1.11-2.67,2.73s-.3,3.39,1.24,3.8c1,.28,6.72,1.59,6.72,1.59Z" fill="#8ca9b8"/><path d="M43,98.27S37.31,97,35.78,96.6a2,2,0,0,0,1.4,2c1,.26,6.14,1.46,6.14,1.46Z" fill="#7e9fb0"/><path d="M43.74,95.54l.14-.84L36.5,93.19a4.46,4.46,0,0,0-.33.8Z" fill="#dee7ec"/><path d="M38.19,92.06a2.12,2.12,0,0,1,.42,0l6.53,1.2-1.24,6.92s-5.68-1.31-6.72-1.59c-1.54-.41-1.58-2.18-1.24-3.8.31-1.47.93-2.77,2.25-2.77m0-.66c-1.46,0-2.43,1.11-2.9,3.29-.71,3.39.77,4.32,1.72,4.58s6.51,1.54,6.74,1.6l.68.15.12-.68,1.24-6.92.11-.65-.64-.12-6.54-1.2a3.27,3.27,0,0,0-.53,0Z" fill="#5a7d91"/><path d="M86.86,97s-29.3-5.44-36.69-6.79A7.74,7.74,0,0,0,41.68,96c-.78,3.66,1.78,8.07,5.26,9,6.35,1.71,37.71,8.84,37.71,8.84Z" fill="#8ca9b8"/><path d="M45,100a7.54,7.54,0,0,1-3.44-2.11c.23,3.15,2.48,6.33,5.37,7.1,6.35,1.71,37.71,8.84,37.71,8.84l.58-4.39C75.88,107.28,51,101.57,45,100Z" fill="#80a1b2"/><path d="M84.76,100.87s-34.68-7.11-35.88-7.33a1.26,1.26,0,0,0-1.38.94,1.32,1.32,0,0,0,.86,1.46c1,.28,36,7.66,36,7.66Z" fill="#dee7ec"/><path d="M83.8,111.42s-31.36-7.13-37.7-8.84a7.39,7.39,0,0,1-4.42-3.82c.55,2.84,2.65,5.5,5.26,6.2,6.35,1.71,37.71,8.84,37.71,8.84Z" fill="#6d8b9e"/><path d="M49.06,90.09a5.88,5.88,0,0,1,1.11.1C57.56,91.54,86.86,97,86.86,97L84.65,113.8S53.29,106.67,46.94,105c-3.48-.93-6-5.34-5.26-9a7.85,7.85,0,0,1,7.38-5.87m0-.66a8.52,8.52,0,0,0-8,6.39c-.84,4,1.95,8.76,5.74,9.78,6.29,1.69,37.42,8.77,37.74,8.84l.7.16.1-.72,2.2-16.81.09-.63L87,96.33,50.29,89.54a6.25,6.25,0,0,0-1.23-.11Z" fill="#5a7d91"/><path d="M83.65,114.43,81.11,113a39.14,39.14,0,0,1,.4-8.73,24.2,24.2,0,0,1,3.06-7.75l2.91,0s83.26,20,87.28,21c7.3,1.87,4.42,14.27-3.57,12.83C162.78,128.84,83.65,114.43,83.65,114.43Z" fill="#fff"/><path d="M177.51,119.15c-.11,3.7-3,7.58-7.59,6.75-6.92-1.25-85.86-16.75-85.86-16.75s-2.17-.75-3-.92a40,40,0,0,0,0,4.78l2.54,1.42,87.54,15.93C177.89,131.57,181,123,177.51,119.15Z" fill="#e6edf0"/><path d="M170.93,128.19C163.31,126.81,84,112.71,84,112.71s-2.37-.77-2.94-.87c0,.73.06,1.17.06,1.17l2.54,1.42,87.54,15.93c5.3.95,8.35-4.18,7.67-8.29C178.3,125.63,175.38,129,170.93,128.19Z" fill="#ccd9e0"/><path d="M81.11,113.24a41.18,41.18,0,0,1,.4-9,25,25,0,0,1,3.14-7.89" fill="none" stroke="#5a7d91" stroke-miterlimit="10" stroke-width="0.66"/><g id="outline-marker"><path d="M49.06,90.09a5.8,5.8,0,0,1,1.11.1c6.13,1.12,27.33,5,34.39,6.36v0l2.91,0s83.26,20,87.28,21c6.9,1.77,4.7,12.94-2.3,12.94a8.08,8.08,0,0,1-1.27-.11L83.65,114.43,81.11,113v0c-8.38-1.92-29.13-6.68-34.16-8a7.81,7.81,0,0,1-5-5.19c-1.75-.41-4.13-1-4.77-1.14A1.84,1.84,0,0,1,35.82,97l-7.3-3.22a.75.75,0,0,1,.29-1.44h.05l8,.38a1.73,1.73,0,0,1,1.36-.65,2.12,2.12,0,0,1,.42,0l4.59.84a7.92,7.92,0,0,1,5.86-2.85m0-1.25h0a9.17,9.17,0,0,0-6.32,2.75l-2.19-.41-1.72-.31a3.55,3.55,0,0,0-.64-.06,2.88,2.88,0,0,0-1.83.63l-7.45-.36h-.1a2,2,0,0,0-.8,3.83l6.75,3a3,3,0,0,0,2.1,2c.56.15,2.45.59,4.15,1a8.93,8.93,0,0,0,5.61,5.34c5,1.34,25.22,6,34,8L83,115.52l.19.1.2,0L171,131.59a8.41,8.41,0,0,0,1.49.13c4.43,0,7.22-3.71,7.68-7.37.41-3.25-1-7-5.07-8s-86.47-20.84-87.3-21l-.15,0h-.16l-2.89,0C77.31,93.94,56.47,90.07,50.4,89a7.42,7.42,0,0,0-1.34-.12Z" fill="#5a7d91"/></g></g><g id="cap"><g id="cap-body"><path d="M232.41,44.19c-3-3.24-9.69-1.06-12.34.61-4.41,2.78-23.35,18.94-27.68,22.66a4.39,4.39,0,0,0-1.28,1.84l-.31.85h0a7.3,7.3,0,0,0-.54,3.66,12.26,12.26,0,0,0,9.25,10.25,7.31,7.31,0,0,0,3.37-.06h0a18.27,18.27,0,0,0,1.79-.45,4.39,4.39,0,0,0,1.07-.62c3.66-2.8,22.95-23.12,25.61-27.19C233,53.21,235.56,47.61,232.41,44.19Z" fill="#8ca9b7"/><path d="M232.56,44.36a16.39,16.39,0,0,1-2.15,4.08c-2.87,4-24.63,23.78-25.88,24.92l-8.32,2.54,6.89,7.9,2.21-.56a4.27,4.27,0,0,0,.44-.3h0c2.17-2.18,18.07-18.19,23.94-25,.76-.92,1.34-1.66,1.66-2.15C233,53.25,235.47,47.8,232.56,44.36Z" fill="#7e9fb0"/><path d="M199.51,84.06a7.31,7.31,0,0,0,3.37-.06h0a18.27,18.27,0,0,0,1.79-.45,4.39,4.39,0,0,0,1.07-.62c3.66-2.8,22.95-23.12,25.61-27.19,1.35-2.06,3.26-6.11,2.28-9.39h0a14.89,14.89,0,0,1-2.19,5.4c-2.56,3.89-26.4,26.55-27.54,27.7a.24.24,0,0,1-.11.06l-2.12.54h0a6.67,6.67,0,0,1-3.06,0,11.17,11.17,0,0,1-8.26-8.53c0,.17-.06.34-.08.51v0c0,.15,0,.3,0,.46v.1c0,.14,0,.29,0,.44v.12c0,.18,0,.37,0,.56A12.26,12.26,0,0,0,199.51,84.06Z" fill="#6f8ea0"/></g><g id="hole"><ellipse cx="198.81" cy="75.41" rx="7.2" ry="9.56" transform="translate(1.06 153.54) rotate(-42.33)" fill="#6f8ea0"/><path d="M206.12,80.56c-6.72.9-12-1.24-15-5.81a11.53,11.53,0,0,0,8.48,8.62C202.57,84,205,82.79,206.12,80.56Z" fill="#8ca9b7"/><ellipse cx="198.82" cy="75.39" rx="6.77" ry="9.11" transform="translate(1.07 153.54) rotate(-42.33)" fill="none" stroke="#5a7d91" stroke-miterlimit="10" stroke-width="0.66"/></g><path id="cast-shadow-2" data-name="cast-shadow" d="M224.35,46.73l1,.45a.75.75,0,0,1,.18,1.23l-9.62,8.77-10,8.07c-1,.83-2,1.2-3.2.38a14,14,0,0,0-3.08-.92.93.93,0,0,1-.57-.85v-2l18.85-16.14Z" fill="#6f8ea0"/><g id="clip"><path d="M219.61,47.07a9.73,9.73,0,0,1,3.6,1.79c.38-1,1-2.56,1-2.56l-3.41-1.17Z" fill="#7190a2"/><path d="M219.61,47.07a9.73,9.73,0,0,1,3.6,1.79c.38-1,1-2.56,1-2.56l-3.41-1.17Z" fill="none" stroke="#5a7d91" stroke-linejoin="round" stroke-width="0.66"/><path d="M205.57,60.78,214,52.63l9.52-8.2.88-.78s-3.41-1.19-3.75-1.32a1,1,0,0,0-.91.15l-10,7.93-10,9.05a2.88,2.88,0,0,0-.92,2.51l0,.35a.88.88,0,0,0,.57.71l3.79,1.33Z" fill="#8ca9b7"/><path d="M204.25,62.81l.45-.69-5.52-1.94a2.87,2.87,0,0,0-.3.75Z" fill="#dee7ec"/><path d="M205.57,60.78,214,52.63l9.52-8.2.88-.78s-3.41-1.19-3.75-1.32a1,1,0,0,0-.91.15l-10,7.93-10,9.05a2.88,2.88,0,0,0-.92,2.51l0,.35a.88.88,0,0,0,.57.71l3.79,1.33Z" fill="none" stroke="#5a7d91" stroke-linejoin="round" stroke-width="0.66"/><path d="M204.21,64.27l.95-.67a1.18,1.18,0,0,0,.42-.49l1.25-2.67a1,1,0,0,1,.23-.32l6.7-6.36,8.84-7.47a.37.37,0,0,1,.61.28v2.29l1.88-1.74,0-2.59a.94.94,0,0,0-1.52-.72l-10,7.93-10,9a2.89,2.89,0,0,0-.92,2.51l0,.35a.88.88,0,0,0,.71.75l.13,0A1,1,0,0,0,204.21,64.27Z" fill="#7190a2"/><path d="M204.21,64.27l.95-.67a1.18,1.18,0,0,0,.42-.49l1.25-2.67a1,1,0,0,1,.23-.32l6.7-6.36,8.84-7.47a.37.37,0,0,1,.61.28v2.29l1.88-1.74,0-2.59a.94.94,0,0,0-1.52-.72l-10,7.93-10,9a2.89,2.89,0,0,0-.92,2.51l0,.35a.88.88,0,0,0,.71.75l.13,0A1,1,0,0,0,204.21,64.27Z" fill="none" stroke="#5a7d91" stroke-linejoin="round" stroke-width="0.66"/></g><g id="cap-outline"><path d="M220.32,42.27a1,1,0,0,1,.33.06l2.75,1a15.17,15.17,0,0,1,4.48-.78,5.93,5.93,0,0,1,4.53,1.67c3.15,3.42.62,9-1,11.56-2.66,4.07-22,24.39-25.61,27.19a4.39,4.39,0,0,1-1.07.62,18.27,18.27,0,0,1-1.79.45h0a6.63,6.63,0,0,1-1.76.23,8.4,8.4,0,0,1-1.61-.17,12.26,12.26,0,0,1-9.25-10.25,7.3,7.3,0,0,1,.54-3.66h0s.14-.4.31-.85a4.39,4.39,0,0,1,1.28-1.84c1.21-1,3.57-3.06,6.44-5.49h0a2.88,2.88,0,0,1,.92-2.51l10-9.05,10-7.93a.94.94,0,0,1,.58-.21m0-1.25h0a2.17,2.17,0,0,0-1.36.48l-10,7.93,0,0,0,0-10,9.05a4.17,4.17,0,0,0-1.35,2.88c-2.66,2.25-4.84,4.11-6,5.1a5.82,5.82,0,0,0-1.64,2.36l-.31.85,0,.11a8.42,8.42,0,0,0-.57,4.1,13.44,13.44,0,0,0,10.25,11.36,10,10,0,0,0,1.86.19,9.25,9.25,0,0,0,1.3-.1h0c.2,0,.39-.07.58-.12l.13,0a17.54,17.54,0,0,0,2-.52,5.79,5.79,0,0,0,1.37-.78c3.55-2.72,23.09-23.22,25.9-27.51,2.49-3.79,4.22-9.5.92-13.09a7.16,7.16,0,0,0-5.45-2.07,15.92,15.92,0,0,0-4.45.72l-2.35-.83a2.18,2.18,0,0,0-.76-.14Z" fill="#5a7d91"/></g></g></g></svg>